<?xml version="1.0" encoding="us-ascii" standalone="no"?><svg xmlns="http://www.w3.org/2000/svg" xmlns:xlink="http://www.w3.org/1999/xlink" contentStyleType="text/css" height="362px" preserveAspectRatio="none" style="width:571px;height:362px;background:#FFFFFF;" version="1.1" viewBox="0 0 571 362" width="571px" zoomAndPan="magnify"><defs/><g><!--class certificate_revocation_list--><g id="elem_certificate_revocation_list"><rect codeLine="6" fill="#FFFFFF" height="158.0781" id="certificate_revocation_list" rx="2.5" ry="2.5" style="stroke:#000000;stroke-width:1.0;" width="210" x="20" y="197"/><ellipse cx="33" cy="211" fill="#FFFFFF" rx="9" ry="9" style="stroke:#000000;stroke-width:1.0;"/><path d="M35.9688,216.6406 Q35.3906,216.9375 34.75,217.0781 Q34.1094,217.2344 33.4063,217.2344 Q30.9063,217.2344 29.5781,215.5938 Q28.2656,213.9375 28.2656,210.8125 Q28.2656,207.6875 29.5781,206.0313 Q30.9063,204.375 33.4063,204.375 Q34.1094,204.375 34.75,204.5313 Q35.4063,204.6875 35.9688,204.9844 L35.9688,207.7031 Q35.3438,207.125 34.75,206.8594 Q34.1563,206.5781 33.5313,206.5781 Q32.1875,206.5781 31.5,207.6563 Q30.8125,208.7188 30.8125,210.8125 Q30.8125,212.9063 31.5,213.9844 Q32.1875,215.0469 33.5313,215.0469 Q34.1563,215.0469 34.75,214.7813 Q35.3438,214.5 35.9688,213.9219 L35.9688,216.6406 Z " fill="#000000"/><text fill="#000000" font-family="Verdana" font-size="14" lengthAdjust="spacing" textLength="182" x="45" y="215.8467">certificate_revocation_list</text><line style="stroke:#000000;stroke-width:1.0;" x1="21" x2="229" y1="225" y2="225"/><text fill="#000000" font-family="Verdana" font-size="14" lengthAdjust="spacing" textLength="77" x="26" y="241.9951">name: text</text><text fill="#000000" font-family="Verdana" font-size="14" lengthAdjust="spacing" textLength="107" x="26" y="258.292">signature: blob</text><text fill="#000000" font-family="Verdana" font-size="14" lengthAdjust="spacing" textLength="123" x="26" y="274.5889">this_update: date</text><text fill="#000000" font-family="Verdana" font-size="14" lengthAdjust="spacing" textLength="129" x="26" y="290.8857">next_update: date</text><text fill="#000000" font-family="Verdana" font-size="14" lengthAdjust="spacing" textLength="55" x="26" y="307.1826">url: text</text><text fill="#000000" font-family="Verdana" font-size="14" lengthAdjust="spacing" textLength="66" x="26" y="323.4795">raw: blob</text><text fill="#000000" font-family="Verdana" font-size="14" lengthAdjust="spacing" textLength="73" x="26" y="339.7764">id: integer</text><line style="stroke:#000000;stroke-width:1.0;" x1="21" x2="229" y1="347.0781" y2="347.0781"/></g><!--class gorp_migrations--><g id="elem_gorp_migrations"><rect codeLine="15" fill="#FFFFFF" height="76.5938" id="gorp_migrations" rx="2.5" ry="2.5" style="stroke:#000000;stroke-width:1.0;" width="159" x="247.5" y="36"/><ellipse cx="267.25" cy="50" fill="#FFFFFF" rx="9" ry="9" style="stroke:#000000;stroke-width:1.0;"/><path d="M270.2188,55.6406 Q269.6406,55.9375 269,56.0781 Q268.3594,56.2344 267.6563,56.2344 Q265.1563,56.2344 263.8281,54.5938 Q262.5156,52.9375 262.5156,49.8125 Q262.5156,46.6875 263.8281,45.0313 Q265.1563,43.375 267.6563,43.375 Q268.3594,43.375 269,43.5313 Q269.6563,43.6875 270.2188,43.9844 L270.2188,46.7031 Q269.5938,46.125 269,45.8594 Q268.4063,45.5781 267.7813,45.5781 Q266.4375,45.5781 265.75,46.6563 Q265.0625,47.7188 265.0625,49.8125 Q265.0625,51.9063 265.75,52.9844 Q266.4375,54.0469 267.7813,54.0469 Q268.4063,54.0469 269,53.7813 Q269.5938,53.5 270.2188,52.9219 L270.2188,55.6406 Z " fill="#000000"/><text fill="#000000" font-family="Verdana" font-size="14" lengthAdjust="spacing" textLength="116" x="280.75" y="54.8467">gorp_migrations</text><line style="stroke:#000000;stroke-width:1.0;" x1="248.5" x2="405.5" y1="64" y2="64"/><text fill="#000000" font-family="Verdana" font-size="14" lengthAdjust="spacing" textLength="147" x="253.5" y="80.9951">applied_at: datetime</text><line style="stroke:#000000;stroke-width:1.0;" x1="248.5" x2="405.5" y1="88.2969" y2="88.2969"/><text fill="#000000" font-family="Verdana" font-size="14" lengthAdjust="spacing" textLength="114" x="253.5" y="105.292">id: varchar(255)</text></g><!--class revoked_certificate--><g id="elem_revoked_certificate"><rect codeLine="19" fill="#FFFFFF" height="125.4844" id="revoked_certificate" rx="2.5" ry="2.5" style="stroke:#000000;stroke-width:1.0;" width="175" x="37.5" y="12"/><ellipse cx="55" cy="26" fill="#FFFFFF" rx="9" ry="9" style="stroke:#000000;stroke-width:1.0;"/><path d="M57.9688,31.6406 Q57.3906,31.9375 56.75,32.0781 Q56.1094,32.2344 55.4063,32.2344 Q52.9063,32.2344 51.5781,30.5938 Q50.2656,28.9375 50.2656,25.8125 Q50.2656,22.6875 51.5781,21.0313 Q52.9063,19.375 55.4063,19.375 Q56.1094,19.375 56.75,19.5313 Q57.4063,19.6875 57.9688,19.9844 L57.9688,22.7031 Q57.3438,22.125 56.75,21.8594 Q56.1563,21.5781 55.5313,21.5781 Q54.1875,21.5781 53.5,22.6563 Q52.8125,23.7188 52.8125,25.8125 Q52.8125,27.9063 53.5,28.9844 Q54.1875,30.0469 55.5313,30.0469 Q56.1563,30.0469 56.75,29.7813 Q57.3438,29.5 57.9688,28.9219 L57.9688,31.6406 Z " fill="#000000"/><text fill="#000000" font-family="Verdana" font-size="14" lengthAdjust="spacing" textLength="137" x="68" y="30.8467">revoked_certificate</text><line style="stroke:#000000;stroke-width:1.0;" x1="38.5" x2="211.5" y1="40" y2="40"/><text fill="#000000" font-family="Verdana" font-size="14" lengthAdjust="spacing" textLength="131" x="43.5" y="56.9951">serialnumber: text</text><text fill="#000000" font-family="Verdana" font-size="14" lengthAdjust="spacing" textLength="156" x="43.5" y="73.292">revocation_date: date</text><text fill="#000000" font-family="Verdana" font-size="14" lengthAdjust="spacing" textLength="85" x="43.5" y="89.5889">reason: text</text><text fill="#000000" font-family="Verdana" font-size="14" lengthAdjust="spacing" textLength="163" x="43.5" y="105.8857">revocation_list: integer</text><text fill="#000000" font-family="Verdana" font-size="14" lengthAdjust="spacing" textLength="73" x="43.5" y="122.1826">id: integer</text><line style="stroke:#000000;stroke-width:1.0;" x1="38.5" x2="211.5" y1="129.4844" y2="129.4844"/></g><!--class sqlite_master--><g id="elem_sqlite_master"><rect codeLine="26" fill="#FFFFFF" height="125.4844" id="sqlite_master" rx="2.5" ry="2.5" style="stroke:#000000;stroke-width:1.0;" width="123" x="441.5" y="12"/><ellipse cx="454.5" cy="26" fill="#FFFFFF" rx="9" ry="9" style="stroke:#000000;stroke-width:1.0;"/><path d="M457.4688,31.6406 Q456.8906,31.9375 456.25,32.0781 Q455.6094,32.2344 454.9063,32.2344 Q452.4063,32.2344 451.0781,30.5938 Q449.7656,28.9375 449.7656,25.8125 Q449.7656,22.6875 451.0781,21.0313 Q452.4063,19.375 454.9063,19.375 Q455.6094,19.375 456.25,19.5313 Q456.9063,19.6875 457.4688,19.9844 L457.4688,22.7031 Q456.8438,22.125 456.25,21.8594 Q455.6563,21.5781 455.0313,21.5781 Q453.6875,21.5781 453,22.6563 Q452.3125,23.7188 452.3125,25.8125 Q452.3125,27.9063 453,28.9844 Q453.6875,30.0469 455.0313,30.0469 Q455.6563,30.0469 456.25,29.7813 Q456.8438,29.5 457.4688,28.9219 L457.4688,31.6406 Z " fill="#000000"/><text fill="#000000" font-family="Verdana" font-size="14" lengthAdjust="spacing" textLength="95" x="466.5" y="30.8467">sqlite_master</text><line style="stroke:#000000;stroke-width:1.0;" x1="442.5" x2="563.5" y1="40" y2="40"/><text fill="#000000" font-family="Verdana" font-size="14" lengthAdjust="spacing" textLength="67" x="447.5" y="56.9951">type: text</text><text fill="#000000" font-family="Verdana" font-size="14" lengthAdjust="spacing" textLength="77" x="447.5" y="73.292">name: text</text><text fill="#000000" font-family="Verdana" font-size="14" lengthAdjust="spacing" textLength="102" x="447.5" y="89.5889">tbl_name: text</text><text fill="#000000" font-family="Verdana" font-size="14" lengthAdjust="spacing" textLength="92" x="447.5" y="105.8857">rootpage: int</text><text fill="#000000" font-family="Verdana" font-size="14" lengthAdjust="spacing" textLength="56" x="447.5" y="122.1826">sql: text</text><line style="stroke:#000000;stroke-width:1.0;" x1="442.5" x2="563.5" y1="129.4844" y2="129.4844"/></g><!--link revoked_certificate to certificate_revocation_list--><g id="link_revoked_certificate_certificate_revocation_list"><path codeLine="34" d="M125,137.15 C125,155.98 125,158.9 125,178.66 " fill="none" id="revoked_certificate-to-certificate_revocation_list" style="stroke:#595959;stroke-width:1.0;"/><polygon fill="none" points="125,196.66,131,178.66,119,178.66,125,196.66" style="stroke:#595959;stroke-width:1.0;"/><text fill="#000000" font-family="Verdana" font-size="13" lengthAdjust="spacing" textLength="112" x="12" y="162.9669">revocation_list:id</text></g><!--SRC=[VPBTJiCm38NlynHct834Rf1sGLy5GUMsfhMMlpdk0A6zEqdBres_H8eIA_vqpackT21742soDneYQ80cg0O77Gkroi6Rj6KVKT21PK_w7Wc2w12CQIsc12s9yWktg5GBxKFUvBRQSbBuC03WqL45IczQJebxZpfABZKsDAMa0wTwZ5qcL53MgIlV_r4SnIuamTU5mLq5x9Lw4dFuKjO7YRNZNYP5QLQ3CLgchaQTiSgEZe0zIZkWtDnlDhSdIl6qpGrdFcTI8c6qVdGDoPcg9O9BxKAOWl_rOibgaV-7cxIpd2Dsc9HaLb0UOm5UvgoDhIyh4e96x6b2JmPsnpGFnlncypJMZzURXpBlfh_oj7w6Vz-zWjLtUzojFW40]--></g></svg>