<?xml version="1.0" encoding="us-ascii" standalone="no"?><svg xmlns="http://www.w3.org/2000/svg" xmlns:xlink="http://www.w3.org/1999/xlink" contentStyleType="text/css" height="524px" preserveAspectRatio="none" style="width:434px;height:524px;background:#FFFFFF;" version="1.1" viewBox="0 0 434 524" width="434px" zoomAndPan="magnify"><defs/><g><ellipse cx="219.5" cy="16" fill="#222222" rx="10" ry="10" style="stroke:#222222;stroke-width:1.0;"/><g id="Base"><rect fill="#F1F1F1" height="50" rx="12.5" ry="12.5" style="stroke:#181818;stroke-width:0.5;" width="55" x="192" y="87"/><line style="stroke:#181818;stroke-width:0.5;" x1="192" x2="247" y1="113.2969" y2="113.2969"/><text fill="#000000" font-family="sans-serif" font-size="14" lengthAdjust="spacing" textLength="35" x="202" y="104.9951">Base</text></g><g id="Download"><rect fill="#F1F1F1" height="50" rx="12.5" ry="12.5" style="stroke:#181818;stroke-width:0.5;" width="91" x="7" y="214"/><line style="stroke:#181818;stroke-width:0.5;" x1="7" x2="98" y1="240.2969" y2="240.2969"/><text fill="#000000" font-family="sans-serif" font-size="14" lengthAdjust="spacing" textLength="71" x="17" y="231.9951">Download</text></g><g id="BrowseCache"><rect fill="#F1F1F1" height="50" rx="12.5" ry="12.5" style="stroke:#181818;stroke-width:0.5;" width="117" x="147" y="214"/><line style="stroke:#181818;stroke-width:0.5;" x1="147" x2="264" y1="240.2969" y2="240.2969"/><text fill="#000000" font-family="sans-serif" font-size="14" lengthAdjust="spacing" textLength="97" x="157" y="231.9951">BrowseCache</text></g><g id="List"><rect fill="#F1F1F1" height="50" rx="12.5" ry="12.5" style="stroke:#181818;stroke-width:0.5;" width="50" x="264.5" y="341"/><line style="stroke:#181818;stroke-width:0.5;" x1="264.5" x2="314.5" y1="367.2969" y2="367.2969"/><text fill="#000000" font-family="sans-serif" font-size="14" lengthAdjust="spacing" textLength="24" x="277.5" y="358.9951">List</text></g><g id="ViewEntry"><rect fill="#F1F1F1" height="50" rx="12.5" ry="12.5" style="stroke:#181818;stroke-width:0.5;" width="91" x="336" y="468"/><line style="stroke:#181818;stroke-width:0.5;" x1="336" x2="427" y1="494.2969" y2="494.2969"/><text fill="#000000" font-family="sans-serif" font-size="14" lengthAdjust="spacing" textLength="71" x="346" y="485.9951">ViewEntry</text></g><!--link *start* to Base--><g id="link_*start*_Base"><path d="M219.5,26.01 C219.5,39.89 219.5,60.97 219.5,80.84 " fill="none" id="*start*-to-Base" style="stroke:#181818;stroke-width:1.0;"/><polygon fill="#181818" points="219.5,86.84,223.5,77.84,219.5,81.84,215.5,77.84,219.5,86.84" style="stroke:#181818;stroke-width:1.0;"/></g><!--link Base to Download--><g id="link_Base_Download"><path d="M192,116.61 C143.62,123.59 46.53,140.6 26.5,167 C16.03,180.8 20.0096,194.2131 29.4796,208.8431 " fill="none" id="Base-to-Download" style="stroke:#181818;stroke-width:1.0;"/><polygon fill="#181818" points="32.74,213.88,31.2074,204.1511,30.023,209.6826,24.4915,208.4983,32.74,213.88" style="stroke:#181818;stroke-width:1.0;"/><text fill="#000000" font-family="sans-serif" font-size="13" lengthAdjust="spacing" textLength="8" x="27.5" y="180.0669">d</text></g><!--link Download to Base--><g id="link_Download_Base"><path d="M66.64,213.92 C76.36,198.94 90.41,180.1 106.5,167 C132.3,146 161.9814,132.8608 186.2314,124.0408 " fill="none" id="Download-to-Base" style="stroke:#181818;stroke-width:1.0;"/><polygon fill="#181818" points="191.87,121.99,182.0448,121.3072,187.1711,123.699,184.7793,128.8253,191.87,121.99" style="stroke:#181818;stroke-width:1.0;"/><text fill="#000000" font-family="sans-serif" font-size="13" lengthAdjust="spacing" textLength="76" x="107.5" y="180.0669">back, home</text></g><!--link Base to BrowseCache--><g id="link_Base_BrowseCache"><path d="M205.57,137.21 C201.11,146.26 196.74,156.81 194.5,167 C191.09,182.47 192.2673,194.2612 195.8373,208.0612 " fill="none" id="Base-to-BrowseCache" style="stroke:#181818;stroke-width:1.0;"/><polygon fill="#181818" points="197.34,213.87,198.9585,204.155,196.0877,209.0294,191.2134,206.1586,197.34,213.87" style="stroke:#181818;stroke-width:1.0;"/><text fill="#000000" font-family="sans-serif" font-size="13" lengthAdjust="spacing" textLength="8" x="195.5" y="180.0669">b</text></g><!--link BrowseCache to Base--><g id="link_BrowseCache_Base"><path d="M208.19,213.97 C210.67,191.86 213.6521,165.2027 216.1321,143.0627 " fill="none" id="BrowseCache-to-Base" style="stroke:#181818;stroke-width:1.0;"/><polygon fill="#181818" points="216.8,137.1,211.823,145.5988,216.2434,142.0689,219.7733,146.4893,216.8,137.1" style="stroke:#181818;stroke-width:1.0;"/><text fill="#000000" font-family="sans-serif" font-size="13" lengthAdjust="spacing" textLength="76" x="213.5" y="180.0669">back, home</text></g><!--link BrowseCache to List--><g id="link_BrowseCache_List"><path d="M186.78,264.18 C178.13,278.48 171.54,296.57 180.5,311 C198.76,340.43 232.5214,352.9275 258.6214,359.1075 " fill="none" id="BrowseCache-to-List" style="stroke:#181818;stroke-width:1.0;"/><polygon fill="#181818" points="264.46,360.49,256.6238,354.5239,259.5945,359.3379,254.7805,362.3087,264.46,360.49" style="stroke:#181818;stroke-width:1.0;"/><text fill="#000000" font-family="sans-serif" font-size="13" lengthAdjust="spacing" textLength="64" x="181.5" y="307.0669">select file</text></g><!--link List to BrowseCache--><g id="link_List_BrowseCache"><path d="M277.78,340.98 C270.54,326.9 260.72,308.99 250.5,294 C243.56,283.82 238.9835,277.8252 231.2735,268.7852 " fill="none" id="List-to-BrowseCache" style="stroke:#181818;stroke-width:1.0;"/><polygon fill="#181818" points="227.38,264.22,230.1768,273.6634,230.6246,268.0243,236.2637,268.4721,227.38,264.22" style="stroke:#181818;stroke-width:1.0;"/><text fill="#000000" font-family="sans-serif" font-size="13" lengthAdjust="spacing" textLength="31" x="261.5" y="307.0669">back</text></g><!--link List to ViewEntry--><g id="link_List_ViewEntry"><path d="M267.95,391.07 C257.89,405.34 250.01,423.42 259.5,438 C276.31,463.82 302.7744,475.8649 329.9044,482.9449 " fill="none" id="List-to-ViewEntry" style="stroke:#181818;stroke-width:1.0;"/><polygon fill="#181818" points="335.71,484.46,328.0117,478.317,330.872,483.1975,325.9916,486.0578,335.71,484.46" style="stroke:#181818;stroke-width:1.0;"/><text fill="#000000" font-family="sans-serif" font-size="13" lengthAdjust="spacing" textLength="77" x="260.5" y="434.0669">select entry</text></g><!--link ViewEntry to List--><g id="link_ViewEntry_List"><path d="M370.38,468 C363.29,453.75 353.41,435.67 342.5,421 C334.35,410.04 328.3615,403.2735 319.0315,394.1135 " fill="none" id="ViewEntry-to-List" style="stroke:#181818;stroke-width:1.0;"/><polygon fill="#181818" points="314.75,389.91,318.3699,399.0695,318.3179,393.4129,323.9745,393.3609,314.75,389.91" style="stroke:#181818;stroke-width:1.0;"/><text fill="#000000" font-family="sans-serif" font-size="13" lengthAdjust="spacing" textLength="31" x="354.5" y="434.0669">back</text></g><!--link ViewEntry to Base--><g id="link_ViewEntry_Base"><path d="M388.63,467.76 C391,458.53 393.33,447.86 394.5,438 C395.39,430.5 395.1,428.53 394.5,421 C387.14,328.13 397.11,300.09 361.5,214 C351.65,190.18 347.15,183.69 327.5,167 C303.53,146.64 276.1665,133.7633 252.9865,124.8033 " fill="none" id="ViewEntry-to-Base" style="stroke:#181818;stroke-width:1.0;"/><polygon fill="#181818" points="247.39,122.64,254.3425,129.6159,252.0537,124.4427,257.2269,122.1539,247.39,122.64" style="stroke:#181818;stroke-width:1.0;"/><text fill="#000000" font-family="sans-serif" font-size="13" lengthAdjust="spacing" textLength="37" x="388.5" y="307.0669">home</text></g><!--link List to Base--><g id="link_List_Base"><path d="M298.1,340.98 C310.55,301.86 328.96,223.1 298.5,167 C287.48,146.71 270.5465,135.1318 252.4265,126.4118 " fill="none" id="List-to-Base" style="stroke:#181818;stroke-width:1.0;"/><polygon fill="#181818" points="247.02,123.81,253.3952,131.3171,251.5254,125.9782,256.8643,124.1084,247.02,123.81" style="stroke:#181818;stroke-width:1.0;"/><text fill="#000000" font-family="sans-serif" font-size="13" lengthAdjust="spacing" textLength="37" x="315.5" y="243.5669">home</text></g><!--SRC=[YzQALT3LjLDmIYnEvG8HO9vBVdbUJdvYYfL22aBGgIY_l3ZLEJ4v8zLA8OaBYGkMziaiBh5IA4xDIKqkKKZBp4db0ec0fS8oKyjTyqgAAk7ogI0U5rmSoO2anEHiD0cG2wmKCl9paOn4TGn83q8AeHpTZH0fa78TY0AOHx7A0W00]--></g></svg>