<?xml version="1.0" encoding="us-ascii" standalone="no"?><svg xmlns="http://www.w3.org/2000/svg" xmlns:xlink="http://www.w3.org/1999/xlink" contentStyleType="text/css" height="524px" preserveAspectRatio="none" style="width:876px;height:524px;background:#FFFFFF;" version="1.1" viewBox="0 0 876 524" width="876px" zoomAndPan="magnify"><defs/><g><ellipse cx="359.62" cy="16" fill="#222222" rx="10" ry="10" style="stroke:#222222;stroke-width:1.0;"/><g id="Base"><rect fill="#F1F1F1" height="50" rx="12.5" ry="12.5" style="stroke:#181818;stroke-width:0.5;" width="55" x="332.12" y="87"/><line style="stroke:#181818;stroke-width:0.5;" x1="332.12" x2="387.12" y1="113.2969" y2="113.2969"/><text fill="#000000" font-family="sans-serif" font-size="14" lengthAdjust="spacing" textLength="35" x="342.12" y="104.9951">Base</text></g><g id="Download"><rect fill="#F1F1F1" height="50" rx="12.5" ry="12.5" style="stroke:#181818;stroke-width:0.5;" width="91" x="414.12" y="214"/><line style="stroke:#181818;stroke-width:0.5;" x1="414.12" x2="505.12" y1="240.2969" y2="240.2969"/><text fill="#000000" font-family="sans-serif" font-size="14" lengthAdjust="spacing" textLength="71" x="424.12" y="231.9951">Download</text></g><g id="BrowseCache"><rect fill="#F1F1F1" height="50" rx="12.5" ry="12.5" style="stroke:#181818;stroke-width:0.5;" width="117" x="88.12" y="468"/><line style="stroke:#181818;stroke-width:0.5;" x1="88.12" x2="205.12" y1="494.2969" y2="494.2969"/><text fill="#000000" font-family="sans-serif" font-size="14" lengthAdjust="spacing" textLength="97" x="98.12" y="485.9951">BrowseCache</text></g><g id="Import"><rect fill="#F1F1F1" height="50" rx="12.5" ry="12.5" style="stroke:#181818;stroke-width:0.5;" width="67" x="685.12" y="468"/><line style="stroke:#181818;stroke-width:0.5;" x1="685.12" x2="752.12" y1="494.2969" y2="494.2969"/><text fill="#000000" font-family="sans-serif" font-size="14" lengthAdjust="spacing" textLength="47" x="695.12" y="485.9951">Import</text></g><g id="List"><rect fill="#F1F1F1" height="50" rx="12.5" ry="12.5" style="stroke:#181818;stroke-width:0.5;" width="50" x="370.62" y="341"/><line style="stroke:#181818;stroke-width:0.5;" x1="370.62" x2="420.62" y1="367.2969" y2="367.2969"/><text fill="#000000" font-family="sans-serif" font-size="14" lengthAdjust="spacing" textLength="24" x="383.62" y="358.9951">List</text></g><g id="ViewEntry"><rect fill="#F1F1F1" height="50" rx="12.5" ry="12.5" style="stroke:#181818;stroke-width:0.5;" width="91" x="350.12" y="468"/><line style="stroke:#181818;stroke-width:0.5;" x1="350.12" x2="441.12" y1="494.2969" y2="494.2969"/><text fill="#000000" font-family="sans-serif" font-size="14" lengthAdjust="spacing" textLength="71" x="360.12" y="485.9951">ViewEntry</text></g><!--link *start* to Base--><g id="link_*start*_Base"><path d="M359.62,26.01 C359.62,39.89 359.62,60.97 359.62,80.84 " fill="none" id="*start*-to-Base" style="stroke:#181818;stroke-width:1.0;"/><polygon fill="#181818" points="359.62,86.84,363.62,77.84,359.62,81.84,355.62,77.84,359.62,86.84" style="stroke:#181818;stroke-width:1.0;"/></g><!--link Base to Download--><g id="link_Base_Download"><path d="M387.32,118.29 C413.14,124.86 450.2,138.82 467.62,167 C476.22,180.93 475.5396,193.6187 471.1996,208.2187 " fill="none" id="Base-to-Download" style="stroke:#181818;stroke-width:1.0;"/><polygon fill="#181818" points="469.49,213.97,475.8886,206.4828,470.9147,209.1773,468.2203,204.2033,469.49,213.97" style="stroke:#181818;stroke-width:1.0;"/><text fill="#000000" font-family="sans-serif" font-size="13" lengthAdjust="spacing" textLength="8" x="473.62" y="180.0669">d</text></g><!--link Download to Base--><g id="link_Download_Base"><path d="M414.01,213.86 C402.08,205.72 390.19,195.69 381.62,184 C371.54,170.26 367.2137,157.698 364.2137,143.048 " fill="none" id="Download-to-Base" style="stroke:#181818;stroke-width:1.0;"/><polygon fill="#181818" points="363.01,137.17,360.8969,146.7895,364.0131,142.0684,368.7342,145.1846,363.01,137.17" style="stroke:#181818;stroke-width:1.0;"/><text fill="#000000" font-family="sans-serif" font-size="13" lengthAdjust="spacing" textLength="76" x="382.62" y="180.0669">back, home</text></g><!--link Base to BrowseCache--><g id="link_Base_BrowseCache"><path d="M332.06,114.79 C270.67,119.37 125.44,133.53 91.62,167 C6,251.71 33.66,332.42 91.62,438 C97.67,449.03 102.3279,455.1203 111.3279,463.6203 " fill="none" id="Base-to-BrowseCache" style="stroke:#181818;stroke-width:1.0;"/><polygon fill="#181818" points="115.69,467.74,111.8934,458.6523,112.0549,464.3069,106.4004,464.4684,115.69,467.74" style="stroke:#181818;stroke-width:1.0;"/><text fill="#000000" font-family="sans-serif" font-size="13" lengthAdjust="spacing" textLength="8" x="40.62" y="307.0669">b</text></g><!--link BrowseCache to Base--><g id="link_BrowseCache_Base"><path d="M141.65,467.74 C134.94,428.94 126.69,351.46 153.62,294 C191.59,212.95 279.641,156.2366 326.521,130.2766 " fill="none" id="BrowseCache-to-Base" style="stroke:#181818;stroke-width:1.0;"/><polygon fill="#181818" points="331.77,127.37,321.9588,128.2306,327.3959,129.7922,325.8343,135.2292,331.77,127.37" style="stroke:#181818;stroke-width:1.0;"/><text fill="#000000" font-family="sans-serif" font-size="13" lengthAdjust="spacing" textLength="76" x="154.62" y="307.0669">back, home</text></g><!--link Base to Import--><g id="link_Base_Import"><path d="M387.35,112.84 C473.84,112.88 736.85,117.17 802.62,167 C856.97,208.18 869.01,244.13 855.62,311 C843.6,370.97 841.9,391.12 802.62,438 C789.03,454.21 774.5925,464.3763 757.6725,473.5663 " fill="none" id="Base-to-Import" style="stroke:#181818;stroke-width:1.0;"/><polygon fill="#181818" points="752.4,476.43,762.2179,475.6494,756.7937,474.0436,758.3996,468.6194,752.4,476.43" style="stroke:#181818;stroke-width:1.0;"/><text fill="#000000" font-family="sans-serif" font-size="13" lengthAdjust="spacing" textLength="4" x="858.62" y="307.0669">i</text></g><!--link Import to Base--><g id="link_Import_Base"><path d="M740.11,467.81 C749.58,454.15 757.23,436.7 750.62,421 C687.93,272.11 625.53,255.85 490.62,167 C457.74,145.35 420.5111,131.4782 392.9211,122.7582 " fill="none" id="Import-to-Base" style="stroke:#181818;stroke-width:1.0;"/><polygon fill="#181818" points="387.2,120.95,394.5761,127.4763,391.9675,122.4568,396.987,119.8482,387.2,120.95" style="stroke:#181818;stroke-width:1.0;"/><text fill="#000000" font-family="sans-serif" font-size="13" lengthAdjust="spacing" textLength="76" x="686.62" y="307.0669">back, home</text></g><!--link Import to List--><g id="link_Import_List"><path d="M692.36,468 C674.05,452.46 648.37,432.97 622.62,421 C553.74,388.98 469.936,375.6255 426.836,370.3755 " fill="none" id="Import-to-List" style="stroke:#181818;stroke-width:1.0;"/><polygon fill="#181818" points="420.88,369.65,429.3303,374.7089,425.8433,370.2546,430.2976,366.7676,420.88,369.65" style="stroke:#181818;stroke-width:1.0;"/><text fill="#000000" font-family="sans-serif" font-size="13" lengthAdjust="spacing" textLength="90" x="651.62" y="434.0669">&lt;select CRL&gt;</text></g><!--link List to Import--><g id="link_List_Import"><path d="M420.69,376.7 C478.2,398.96 614.0441,451.5352 679.1841,476.7352 " fill="none" id="List-to-Import" style="stroke:#181818;stroke-width:1.0;"/><polygon fill="#181818" points="684.78,478.9,677.8294,471.9222,680.1168,477.096,674.943,479.3834,684.78,478.9" style="stroke:#181818;stroke-width:1.0;"/><text fill="#000000" font-family="sans-serif" font-size="13" lengthAdjust="spacing" textLength="32" x="576.62" y="434.0669">Back</text></g><!--link BrowseCache to List--><g id="link_BrowseCache_List"><path d="M194.44,467.99 C246.93,441.64 323.8379,403.0321 365.0079,382.3621 " fill="none" id="BrowseCache-to-List" style="stroke:#181818;stroke-width:1.0;"/><polygon fill="#181818" points="370.37,379.67,360.5321,380.1335,365.9016,381.9134,364.1216,387.283,370.37,379.67" style="stroke:#181818;stroke-width:1.0;"/><text fill="#000000" font-family="sans-serif" font-size="13" lengthAdjust="spacing" textLength="64" x="287.62" y="434.0669">select file</text></g><!--link List to BrowseCache--><g id="link_List_BrowseCache"><path d="M370.41,370.44 C334.03,376.29 265.68,390.61 215.62,421 C195.63,433.13 181.2259,447.7798 168.5259,463.1898 " fill="none" id="List-to-BrowseCache" style="stroke:#181818;stroke-width:1.0;"/><polygon fill="#181818" points="164.71,467.82,173.5207,463.4187,167.8899,463.9615,167.3471,458.3308,164.71,467.82" style="stroke:#181818;stroke-width:1.0;"/><text fill="#000000" font-family="sans-serif" font-size="13" lengthAdjust="spacing" textLength="31" x="216.62" y="434.0669">back</text></g><!--link List to ViewEntry--><g id="link_List_ViewEntry"><path d="M414.86,391.13 C420.8,400 426.57,410.46 429.62,421 C434.31,437.28 429.9111,449.5279 420.5911,462.8979 " fill="none" id="List-to-ViewEntry" style="stroke:#181818;stroke-width:1.0;"/><polygon fill="#181818" points="417.16,467.82,425.5881,462.7242,420.0193,463.7182,419.0253,458.1494,417.16,467.82" style="stroke:#181818;stroke-width:1.0;"/><text fill="#000000" font-family="sans-serif" font-size="13" lengthAdjust="spacing" textLength="77" x="431.62" y="434.0669">select entry</text></g><!--link ViewEntry to List--><g id="link_ViewEntry_List"><path d="M391.26,467.72 C389.29,454.02 387.61,436.57 388.62,421 C389.25,411.19 389.6965,406.3832 390.9865,397.0732 " fill="none" id="ViewEntry-to-List" style="stroke:#181818;stroke-width:1.0;"/><polygon fill="#181818" points="391.81,391.13,386.6126,399.4958,391.1238,396.0827,394.5369,400.5938,391.81,391.13" style="stroke:#181818;stroke-width:1.0;"/><text fill="#000000" font-family="sans-serif" font-size="13" lengthAdjust="spacing" textLength="31" x="389.62" y="434.0669">back</text></g><!--link ViewEntry to Base--><g id="link_ViewEntry_Base"><path d="M349.9,487.93 C317.12,482.35 275.1,469.16 253.62,438 C185.56,339.31 287.0563,198.6172 334.5263,141.7172 " fill="none" id="ViewEntry-to-Base" style="stroke:#181818;stroke-width:1.0;"/><polygon fill="#181818" points="338.37,137.11,329.533,141.4584,335.167,140.9493,335.676,146.5832,338.37,137.11" style="stroke:#181818;stroke-width:1.0;"/><text fill="#000000" font-family="sans-serif" font-size="13" lengthAdjust="spacing" textLength="37" x="244.62" y="307.0669">home</text></g><!--link List to Base--><g id="link_List_Base"><path d="M384.71,340.73 C380.71,331.5 376.27,320.84 372.62,311 C364.98,290.45 360.99,285.67 357.62,264 C350.72,219.7 353.3541,173.1823 356.2441,143.2123 " fill="none" id="List-to-Base" style="stroke:#181818;stroke-width:1.0;"/><polygon fill="#181818" points="356.82,137.24,351.9746,145.8145,356.3401,142.2169,359.9377,146.5824,356.82,137.24" style="stroke:#181818;stroke-width:1.0;"/><text fill="#000000" font-family="sans-serif" font-size="13" lengthAdjust="spacing" textLength="37" x="358.62" y="243.5669">home</text></g><!--link Download to List--><g id="link_Download_List"><path d="M448.49,264.17 C442.01,277.99 433.58,295.58 425.62,311 C420.5,320.91 417.5268,326.4478 412.3068,335.7478 " fill="none" id="Download-to-List" style="stroke:#181818;stroke-width:1.0;"/><polygon fill="#181818" points="409.37,340.98,417.2632,335.0896,411.8173,336.6199,410.287,331.1739,409.37,340.98" style="stroke:#181818;stroke-width:1.0;"/><text fill="#000000" font-family="sans-serif" font-size="13" lengthAdjust="spacing" textLength="85" x="433.62" y="307.0669">&lt;download&gt;</text></g><!--link List to Download--><g id="link_List_Download"><path d="M384.87,340.82 C380.18,326.52 377.22,308.43 384.62,294 C391.13,281.29 397.2556,274.3322 408.9056,266.1722 " fill="none" id="List-to-Download" style="stroke:#181818;stroke-width:1.0;"/><polygon fill="#181818" points="413.82,262.73,404.1536,264.617,409.7247,265.5985,408.7432,271.1696,413.82,262.73" style="stroke:#181818;stroke-width:1.0;"/><text fill="#000000" font-family="sans-serif" font-size="13" lengthAdjust="spacing" textLength="31" x="385.62" y="307.0669">back</text></g><!--SRC=[YzQALT3LjLDmIYnEvG8HO9vBVdbUJdvYYfL22aBGgIY_l3ZLEJ4v8zLA8GaXxfbRa5zKOgMGoGLXmSq3gafCpjPHoCZFJKMMyyai1YgtAKxDIKqkKN0Eyh7Z0WcX6EO4rCc5P2EIHgY-jCoSL8I-iCpKSjUyag9Ak7mgYCS55qSo0EGgD0c8Sy4EXHk9wb-G7eGKGZcw6p4y3WjB8cIX0PC25KCA5aI4WFG20000]--></g></svg>