<svg xmlns="http://www.w3.org/2000/svg" xmlns:xlink="http://www.w3.org/1999/xlink" contentStyleType="text/css" height="788px" preserveAspectRatio="none" style="width:1341px;height:788px;background:#FFFFFF;" version="1.1" viewBox="0 0 1341 788" width="1341px" zoomAndPan="magnify"><defs/><g><ellipse cx="667.48" cy="16" fill="#222222" rx="10" ry="10" style="stroke:#222222;stroke-width:1.0;"/><g id="Base"><rect fill="#F1F1F1" height="50" rx="12.5" ry="12.5" style="stroke:#181818;stroke-width:0.5;" width="51.5559" x="641.48" y="87"/><line style="stroke:#181818;stroke-width:0.5;" x1="641.48" x2="693.0359" y1="116.0679" y2="116.0679"/><text fill="#000000" font-family="sans-serif" font-size="14" lengthAdjust="spacing" textLength="31.5559" x="651.48" y="106.9659">Base</text></g><g id="Download"><rect fill="#F1F1F1" height="50" rx="12.5" ry="12.5" style="stroke:#181818;stroke-width:0.5;" width="86.8917" x="491.98" y="216"/><line style="stroke:#181818;stroke-width:0.5;" x1="491.98" x2="578.8717" y1="245.0679" y2="245.0679"/><text fill="#000000" font-family="sans-serif" font-size="14" lengthAdjust="spacing" textLength="66.8917" x="501.98" y="235.9659">Download</text></g><g id="BrowseCache"><rect fill="#F1F1F1" height="50" rx="12.5" ry="12.5" style="stroke:#181818;stroke-width:0.5;" width="108.9276" x="97.98" y="474"/><line style="stroke:#181818;stroke-width:0.5;" x1="97.98" x2="206.9076" y1="503.0679" y2="503.0679"/><text fill="#000000" font-family="sans-serif" font-size="14" lengthAdjust="spacing" textLength="88.9276" x="107.98" y="493.9659">BrowseCache</text></g><g id="Import"><rect fill="#F1F1F1" height="50" rx="12.5" ry="12.5" style="stroke:#181818;stroke-width:0.5;" width="65.7518" x="711.48" y="474"/><line style="stroke:#181818;stroke-width:0.5;" x1="711.48" x2="777.2318" y1="503.0679" y2="503.0679"/><text fill="#000000" font-family="sans-serif" font-size="14" lengthAdjust="spacing" textLength="45.7518" x="721.48" y="493.9659">Import</text></g><g id="Paste_PEM"><rect fill="#F1F1F1" height="50" rx="12.5" ry="12.5" style="stroke:#181818;stroke-width:0.5;" width="91.1477" x="895.98" y="732"/><line style="stroke:#181818;stroke-width:0.5;" x1="895.98" x2="987.1277" y1="761.0679" y2="761.0679"/><text fill="#000000" font-family="sans-serif" font-size="14" lengthAdjust="spacing" textLength="71.1477" x="905.98" y="751.9659">Paste_PEM</text></g><g id="View_PEM"><rect fill="#F1F1F1" height="50" rx="12.5" ry="12.5" style="stroke:#181818;stroke-width:0.5;" width="86.0797" x="722.48" y="603"/><line style="stroke:#181818;stroke-width:0.5;" x1="722.48" x2="808.5597" y1="632.0679" y2="632.0679"/><text fill="#000000" font-family="sans-serif" font-size="14" lengthAdjust="spacing" textLength="66.0797" x="732.48" y="622.9659">View_PEM</text></g><g id="List"><rect fill="#F1F1F1" height="50" rx="12.5" ry="12.5" style="stroke:#181818;stroke-width:0.5;" width="50" x="437.48" y="345"/><line style="stroke:#181818;stroke-width:0.5;" x1="437.48" x2="487.48" y1="374.0679" y2="374.0679"/><text fill="#000000" font-family="sans-serif" font-size="14" lengthAdjust="spacing" textLength="22.7079" x="451.126" y="364.9659">List</text></g><g id="ViewEntry"><rect fill="#F1F1F1" height="50" rx="12.5" ry="12.5" style="stroke:#181818;stroke-width:0.5;" width="85.3237" x="419.98" y="474"/><line style="stroke:#181818;stroke-width:0.5;" x1="419.98" x2="505.3037" y1="503.0679" y2="503.0679"/><text fill="#000000" font-family="sans-serif" font-size="14" lengthAdjust="spacing" textLength="65.3237" x="429.98" y="493.9659">ViewEntry</text></g><!--link *start* to Base--><g id="link_*start*_Base"><path d="M667.48,26.01 C667.48,39.89 667.48,60.97 667.48,80.84 " fill="none" id="*start*-to-Base" style="stroke:#181818;stroke-width:1.0;"/><polygon fill="#181818" points="667.48,86.84,671.48,77.84,667.48,81.84,663.48,77.84,667.48,86.84" style="stroke:#181818;stroke-width:1.0;"/></g><!--link Base to Download--><g id="link_Base_Download"><path d="M641.23,114.35 C607.69,117.66 550.81,128.91 524.48,167 C514.71,181.13 516.1443,194.8295 521.6643,210.0495 " fill="none" id="Base-to-Download" style="stroke:#181818;stroke-width:1.0;"/><polygon fill="#181818" points="523.71,215.69,524.4018,205.8655,522.0053,210.9896,516.8811,208.5931,523.71,215.69" style="stroke:#181818;stroke-width:1.0;"/><text fill="#000000" font-family="sans-serif" font-size="13" lengthAdjust="spacing" textLength="7.995" x="525.48" y="181.897">d</text></g><!--link Download to Base--><g id="link_Download_Base"><path d="M542.45,215.73 C547.84,200.34 556.59,180.79 569.48,167 C589.37,145.71 614.0311,133.0632 635.6511,124.3932 " fill="none" id="Download-to-Base" style="stroke:#181818;stroke-width:1.0;"/><polygon fill="#181818" points="641.22,122.16,631.3778,121.7972,636.5792,124.021,634.3555,129.2224,641.22,122.16" style="stroke:#181818;stroke-width:1.0;"/><text fill="#000000" font-family="sans-serif" font-size="13" lengthAdjust="spacing" textLength="70.7201" x="570.48" y="181.897">back, home</text></g><!--link Base to BrowseCache--><g id="link_Base_BrowseCache"><path d="M641.44,113.67 C535.22,116.65 138.38,130.16 97.48,167 C6,249.39 38.81,335.77 97.48,444 C103.47,455.06 108.1179,461.1603 117.1179,469.6603 " fill="none" id="Base-to-BrowseCache" style="stroke:#181818;stroke-width:1.0;"/><polygon fill="#181818" points="121.48,473.78,117.6834,464.6923,117.8449,470.3469,112.1904,470.5084,121.48,473.78" style="stroke:#181818;stroke-width:1.0;"/><text fill="#000000" font-family="sans-serif" font-size="13" lengthAdjust="spacing" textLength="7.995" x="45.48" y="310.897">b</text></g><!--link BrowseCache to Base--><g id="link_BrowseCache_Base"><path d="M157.14,473.98 C160.8,459.06 166.9,439.94 176.48,425 C267.47,283.1 306.4,247.55 454.48,167 C516.31,133.37 593.6885,120.8386 635.4185,116.0886 " fill="none" id="BrowseCache-to-Base" style="stroke:#181818;stroke-width:1.0;"/><polygon fill="#181818" points="641.38,115.41,631.9854,112.4535,636.4121,115.9755,632.8901,120.4022,641.38,115.41" style="stroke:#181818;stroke-width:1.0;"/><text fill="#000000" font-family="sans-serif" font-size="13" lengthAdjust="spacing" textLength="70.7201" x="272.48" y="310.897">back, home</text></g><!--link Base to Import--><g id="link_Base_Import"><path d="M680.97,137.11 C685.57,146.23 690.34,156.86 693.48,167 C728.02,278.34 739.3663,412.3316 742.8263,467.7816 " fill="none" id="Base-to-Import" style="stroke:#181818;stroke-width:1.0;"/><polygon fill="#181818" points="743.2,473.77,746.6317,464.5384,742.8886,468.7797,738.6473,465.0366,743.2,473.77" style="stroke:#181818;stroke-width:1.0;"/><text fill="#000000" font-family="sans-serif" font-size="13" lengthAdjust="spacing" textLength="3.354" x="726.48" y="310.897">i</text></g><!--link Import to Base--><g id="link_Import_Base"><path d="M756.08,473.83 C759.87,464.71 763.59,454.08 765.48,444 C767.04,435.7 765.8,433.44 765.48,425 C761.97,331.35 759.96,306.98 737.48,216 C731.98,193.76 733.46,186.52 721.48,167 C714.06,154.91 707.8053,147.5742 697.9153,138.3842 " fill="none" id="Import-to-Base" style="stroke:#181818;stroke-width:1.0;"/><polygon fill="#181818" points="693.52,134.3,697.3902,143.3566,697.1828,137.7035,702.8358,137.4961,693.52,134.3" style="stroke:#181818;stroke-width:1.0;"/><text fill="#000000" font-family="sans-serif" font-size="13" lengthAdjust="spacing" textLength="70.7201" x="758.48" y="310.897">back, home</text></g><!--link Base to Paste_PEM--><g id="link_Base_Paste_PEM"><path d="M693.57,115.08 C739.01,119.51 834.76,132.46 907.48,167 C954.94,189.54 1000.48,187.45 1000.48,240 C1000.48,240 1000.48,240 1000.48,629 C1000.48,667.66 981.1751,702.3747 963.9251,726.8647 " fill="none" id="Base-to-Paste_PEM" style="stroke:#181818;stroke-width:1.0;"/><polygon fill="#181818" points="960.47,731.77,968.9229,726.7155,963.3493,727.6822,962.3825,722.1086,960.47,731.77" style="stroke:#181818;stroke-width:1.0;"/><text fill="#000000" font-family="sans-serif" font-size="13" lengthAdjust="spacing" textLength="219.4662" x="1001.48" y="439.897">import a Certificate in PEM format p</text></g><!--link Paste_PEM to Base--><g id="link_Paste_PEM_Base"><path d="M986.99,747.8 C1075.33,730.57 1261.48,687.35 1261.48,629 C1261.48,240 1261.48,240 1261.48,240 C1261.48,122.15 814.73,113.2988 699.77,112.9388 " fill="none" id="Paste_PEM-to-Base" style="stroke:#181818;stroke-width:1.0;"/><polygon fill="#181818" points="693.77,112.92,702.7574,116.9482,698.77,112.9357,702.7825,108.9482,693.77,112.92" style="stroke:#181818;stroke-width:1.0;"/><text fill="#000000" font-family="sans-serif" font-size="13" lengthAdjust="spacing" textLength="70.7201" x="1262.48" y="439.897">back, home</text></g><!--link Paste_PEM to View_PEM--><g id="link_Paste_PEM_View_PEM"><path d="M908.09,731.9 C876.81,709.33 835.1863,679.2899 803.8663,656.6999 " fill="none" id="Paste_PEM-to-View_PEM" style="stroke:#181818;stroke-width:1.0;"/><polygon fill="#181818" points="799,653.19,803.9595,661.699,803.0552,656.1149,808.6393,655.2106,799,653.19" style="stroke:#181818;stroke-width:1.0;"/><text fill="#000000" font-family="sans-serif" font-size="13" lengthAdjust="spacing" textLength="47.632" x="864.48" y="697.897">&lt;enter&gt;</text></g><!--link View_PEM to Paste_PEM--><g id="link_View_PEM_Paste_PEM"><path d="M773.4,653.17 C779.65,668.92 789.78,688.9 804.48,702 C830.25,724.96 861.151,737.1427 890.071,745.0227 " fill="none" id="View_PEM-to-Paste_PEM" style="stroke:#181818;stroke-width:1.0;"/><polygon fill="#181818" points="895.86,746.6,888.2281,740.3747,891.0359,745.2855,886.125,748.0933,895.86,746.6" style="stroke:#181818;stroke-width:1.0;"/><text fill="#000000" font-family="sans-serif" font-size="13" lengthAdjust="spacing" textLength="28.47" x="805.48" y="697.897">back</text></g><!--link View_PEM to Base--><g id="link_View_PEM_Base"><path d="M808.59,610.67 C851.33,591.34 910.48,554.71 910.48,500 C910.48,240 910.48,240 910.48,240 C910.48,142.89 762.1484,120.4084 699.4684,115.0784 " fill="none" id="View_PEM-to-Base" style="stroke:#181818;stroke-width:1.0;"/><polygon fill="#181818" points="693.49,114.57,702.1187,119.3182,698.472,114.9936,702.7966,111.3469,693.49,114.57" style="stroke:#181818;stroke-width:1.0;"/><text fill="#000000" font-family="sans-serif" font-size="13" lengthAdjust="spacing" textLength="35.386" x="911.48" y="375.397">home</text></g><!--link View_PEM to View_PEM--><g id="link_View_PEM_View_PEM"><path d="M808.79,616.14 C827.48,615.17 843.48,619.12 843.48,628 C843.48,636.88 833.4719,641.141 814.7819,640.171 " fill="none" id="View_PEM-to-View_PEM" style="stroke:#181818;stroke-width:1.0;"/><polygon fill="#181818" points="808.79,639.86,817.5706,644.3211,813.7833,640.1191,817.9852,636.3318,808.79,639.86" style="stroke:#181818;stroke-width:1.0;"/><text fill="#000000" font-family="sans-serif" font-size="13" lengthAdjust="spacing" textLength="109.5511" x="849.48" y="633.397">check against CRL</text></g><!--link Import to List--><g id="link_Import_List"><path d="M711.36,483.08 C654.24,457.36 543.9306,407.6842 492.9806,384.7342 " fill="none" id="Import-to-List" style="stroke:#181818;stroke-width:1.0;"/><polygon fill="#181818" points="487.51,382.27,494.0731,389.6134,492.0689,384.3235,497.3587,382.3192,487.51,382.27" style="stroke:#181818;stroke-width:1.0;"/><text fill="#000000" font-family="sans-serif" font-size="13" lengthAdjust="spacing" textLength="76.5441" x="620.48" y="439.897">&lt;select CRL&gt;</text></g><!--link List to Import--><g id="link_List_Import"><path d="M485.22,395.18 C501.46,411.14 524.59,431.37 548.48,444 C601.68,472.13 665.0394,485.7669 705.3794,492.3969 " fill="none" id="List-to-Import" style="stroke:#181818;stroke-width:1.0;"/><polygon fill="#181818" points="711.3,493.37,703.0679,487.9634,706.3662,492.5591,701.7704,495.8575,711.3,493.37" style="stroke:#181818;stroke-width:1.0;"/><text fill="#000000" font-family="sans-serif" font-size="13" lengthAdjust="spacing" textLength="28.925" x="549.48" y="439.897">Back</text></g><!--link Import to View_PEM--><g id="link_Import_View_PEM"><path d="M748.48,524.19 C752.22,546.78 756.7791,574.4107 760.5191,596.9807 " fill="none" id="Import-to-View_PEM" style="stroke:#181818;stroke-width:1.0;"/><polygon fill="#181818" points="761.5,602.9,763.9749,593.3672,760.6826,597.9673,756.0825,594.675,761.5,602.9" style="stroke:#181818;stroke-width:1.0;"/><text fill="#000000" font-family="sans-serif" font-size="13" lengthAdjust="spacing" textLength="80.3141" x="756.48" y="568.897">&lt;select PEM&gt;</text></g><!--link BrowseCache to List--><g id="link_BrowseCache_List"><path d="M187.85,473.96 C212,458.37 245.17,438.51 276.48,425 C331.9,401.09 395.1894,385.4459 431.5594,377.4659 " fill="none" id="BrowseCache-to-List" style="stroke:#181818;stroke-width:1.0;"/><polygon fill="#181818" points="437.42,376.18,427.7719,374.2018,432.5362,377.2516,429.4864,382.0159,437.42,376.18" style="stroke:#181818;stroke-width:1.0;"/><text fill="#000000" font-family="sans-serif" font-size="13" lengthAdjust="spacing" textLength="57.07" x="277.48" y="439.897">select file</text></g><!--link List to BrowseCache--><g id="link_List_BrowseCache"><path d="M437.35,370.33 C388.24,370.22 277.86,375.92 203.48,425 C185.41,436.92 174.6521,452.3292 166.0721,468.6492 " fill="none" id="List-to-BrowseCache" style="stroke:#181818;stroke-width:1.0;"/><polygon fill="#181818" points="163.28,473.96,171.0086,467.8552,165.6067,469.5344,163.9276,464.1325,163.28,473.96" style="stroke:#181818;stroke-width:1.0;"/><text fill="#000000" font-family="sans-serif" font-size="13" lengthAdjust="spacing" textLength="28.47" x="204.48" y="439.897">back</text></g><!--link List to ViewEntry--><g id="link_List_ViewEntry"><path d="M437.11,374.87 C409.64,380.56 367.11,394.09 347.48,425 C326.81,457.54 373.2886,476.7091 413.9886,487.4491 " fill="none" id="List-to-ViewEntry" style="stroke:#181818;stroke-width:1.0;"/><polygon fill="#181818" points="419.79,488.98,412.1085,482.8161,414.9555,487.7043,410.0673,490.5513,419.79,488.98" style="stroke:#181818;stroke-width:1.0;"/><text fill="#000000" font-family="sans-serif" font-size="13" lengthAdjust="spacing" textLength="70.6161" x="348.48" y="439.897">select entry</text></g><!--link ViewEntry to List--><g id="link_ViewEntry_List"><path d="M460.64,473.67 C459.78,459.48 459.03,441.23 459.48,425 C459.75,415.24 459.9465,410.4896 460.4965,401.1696 " fill="none" id="ViewEntry-to-List" style="stroke:#181818;stroke-width:1.0;"/><polygon fill="#181818" points="460.85,395.18,456.3268,403.9287,460.5554,400.1713,464.3129,404.4,460.85,395.18" style="stroke:#181818;stroke-width:1.0;"/><text fill="#000000" font-family="sans-serif" font-size="13" lengthAdjust="spacing" textLength="28.47" x="460.48" y="439.897">back</text></g><!--link ViewEntry to Base--><g id="link_ViewEntry_Base"><path d="M505.1,493.66 C562.51,486.83 659.99,471.44 681.48,444 C683.85,440.98 672.8324,218.7724 669.0124,143.0824 " fill="none" id="ViewEntry-to-Base" style="stroke:#181818;stroke-width:1.0;"/><polygon fill="#181818" points="668.71,137.09,665.1687,146.2802,668.962,142.0836,673.1586,145.8769,668.71,137.09" style="stroke:#181818;stroke-width:1.0;"/><text fill="#000000" font-family="sans-serif" font-size="13" lengthAdjust="spacing" textLength="35.386" x="677.48" y="310.897">home</text></g><!--link List to Base--><g id="link_List_Base"><path d="M449.81,344.98 C435.11,313.52 415.52,257.51 437.48,216 C477.38,140.59 583.9727,120.926 635.3527,115.536 " fill="none" id="List-to-Base" style="stroke:#181818;stroke-width:1.0;"/><polygon fill="#181818" points="641.32,114.91,631.9518,111.8708,636.3473,115.4317,632.7864,119.8272,641.32,114.91" style="stroke:#181818;stroke-width:1.0;"/><text fill="#000000" font-family="sans-serif" font-size="13" lengthAdjust="spacing" textLength="35.386" x="438.48" y="246.397">home</text></g><!--link Download to List--><g id="link_Download_List"><path d="M526.02,266.31 C520,280.83 511.64,299.41 502.48,315 C496.51,325.16 492.6612,330.9335 485.7812,339.9835 " fill="none" id="Download-to-List" style="stroke:#181818;stroke-width:1.0;"/><polygon fill="#181818" points="482.15,344.76,490.7811,340.0161,485.176,340.7796,484.4124,335.1745,482.15,344.76" style="stroke:#181818;stroke-width:1.0;"/><text fill="#000000" font-family="sans-serif" font-size="13" lengthAdjust="spacing" textLength="75.4911" x="512.48" y="310.897">&lt;download&gt;</text></g><!--link List to Download--><g id="link_List_Download"><path d="M458.06,344.69 C456.55,329.83 456.84,310.89 464.48,296 C470.7,283.87 476.2199,277.2866 487.1099,269.1666 " fill="none" id="List-to-Download" style="stroke:#181818;stroke-width:1.0;"/><polygon fill="#181818" points="491.92,265.58,482.3139,267.7531,487.9116,268.5688,487.096,274.1665,491.92,265.58" style="stroke:#181818;stroke-width:1.0;"/><text fill="#000000" font-family="sans-serif" font-size="13" lengthAdjust="spacing" textLength="28.47" x="465.48" y="310.897">back</text></g><!--SRC=[ZL91QiCm4Bph5NikpGTCyC5E3eKKGWwzb18syheHiQKW2Kn_NybsjBBJGo-6dTaPZSRwVFc2pQQ42Xs9-1cddHbqPx0fe66micPmLAEyKW4Nnj_wkx6-0CNG4Psdyt7_7j2H1OIQh5UjakW9b8P0GcjiZnxk8ksdBE44bBTNk9gULlI7ec7otfBsP4lnGDPdHuibELcFfWkSFSFjv0tm6vLs7khJGKpt-pjPnXsK2oLi7NKaHs6PirdeUICCfOYYHObLZ9mrdLdFkbPrnBhekzVU_YIUuYGIdXcaEfZ8-aYMo_ySDKpn-ZhZKpMFD_GFTgwkcR6i5dw8KViB]--></g></svg>